<svg width="1129" height="212" viewBox="0 0 1129 212" fill="none" xmlns="http://www.w3.org/2000/svg">
<path d="M22.88 166.4C16.0533 166.4 10.6667 163.093 6.72 156.48C2.88 149.867 0.960001 140.907 0.960001 129.6C0.960001 109.867 6.13333 90.0267 16.48 70.08C26.9333 50.0267 40.7467 33.5467 57.92 20.64C75.0933 7.73332 93.28 1.22666 112.48 1.12C122.293 1.01333 131.307 3.30666 139.52 8C147.84 12.5867 154.453 19.36 159.36 28.32C164.267 37.28 166.72 47.9467 166.72 60.32C166.72 72.8 164.587 85.28 160.32 97.76C156.16 110.24 150.347 121.6 142.88 131.84C153.973 128.32 162.293 123.573 167.84 117.6L171.04 120.8C164.533 128.053 153.547 133.707 138.08 137.76C130.613 146.72 122.293 153.76 113.12 158.88C104.053 163.893 94.72 166.4 85.12 166.4C80.64 166.4 76.7467 165.493 73.44 163.68C70.24 161.76 68.64 159.307 68.64 156.32C68.64 153.013 70.2933 150.347 73.6 148.32C76.9067 146.293 81.0667 144.693 86.08 143.52C91.2 142.24 98.2933 140.853 107.36 139.36C119.307 137.44 128.587 135.627 135.2 133.92C143.413 123.893 149.973 112.373 154.88 99.36C159.787 86.3467 162.24 73.4933 162.24 60.8C162.24 49.6 159.947 39.7867 155.36 31.36C150.88 22.9333 144.8 16.48 137.12 12C129.547 7.51999 121.333 5.27999 112.48 5.27999C94.3467 5.27999 77.0667 11.5733 60.64 24.16C44.2133 36.7467 30.9867 52.64 20.96 71.84C10.9333 91.04 5.92 109.867 5.92 128.32C5.92 138.347 7.52 146.453 10.72 152.64C13.92 158.827 18.08 161.92 23.2 161.92C27.4667 161.92 31.4667 160.533 35.2 157.76C39.04 154.88 42.6667 151.04 46.08 146.24C49.6 141.44 53.9733 134.773 59.2 126.24C61.44 122.613 65.6 115.52 71.68 104.96C74.0267 100.587 76.2133 96.6933 78.24 93.28L107.2 43.04C110.4 37.4933 112.8 33.4933 114.4 31.04C116.107 28.48 117.493 26.72 118.56 25.76C119.627 24.8 121.067 23.84 122.88 22.88C124.16 22.24 125.493 21.92 126.88 21.92C129.013 21.92 130.827 22.6667 132.32 24.16C133.813 25.6533 134.56 27.4667 134.56 29.6C134.56 31.3067 133.973 33.0667 132.8 34.88C131.627 36.5867 129.813 38.1867 127.36 39.68C121.28 43.3067 115.787 47.68 110.88 52.8C105.973 57.92 101.707 63.2533 98.08 68.8C94.56 74.24 90.2933 81.3333 85.28 90.08L82.4 95.04C78.24 102.293 74.6667 108.587 71.68 113.92L62.88 129.28C57.12 139.2 52.1067 146.827 47.84 152.16C43.5733 157.387 39.52 161.067 35.68 163.2C31.84 165.333 27.5733 166.4 22.88 166.4ZM73.12 156.32C73.12 158.24 74.2933 159.68 76.64 160.64C78.9867 161.493 81.9733 161.92 85.6 161.92C93.3867 161.92 101.067 160 108.64 156.16C116.213 152.213 123.36 146.773 130.08 139.84C126.24 140.693 118.347 142.133 106.4 144.16C94.6667 146.08 86.1867 147.84 80.96 149.44C75.7333 151.04 73.12 153.333 73.12 156.32ZM169.74 165.92C166.753 165.92 164.407 164.907 162.7 162.88C161.1 160.853 160.3 158.133 160.3 154.72C160.3 149.387 162.167 143.467 165.9 136.96L185.9 102.4L169.42 120.64L166.22 117.6L196.46 84L200.46 86.08L170.22 138.56C166.807 144.64 165.1 149.92 165.1 154.4C165.1 156.533 165.473 158.187 166.22 159.36C167.073 160.533 168.247 161.12 169.74 161.12C172.833 161.12 176.087 159.573 179.5 156.48C183.02 153.387 188.727 147.413 196.62 138.56L204.78 129.44L215.34 117.6L218.54 120.8L209.26 131.2L203.02 138.24C195.98 146.133 190.807 151.84 187.5 155.36C184.193 158.773 181.1 161.387 178.22 163.2C175.447 165.013 172.62 165.92 169.74 165.92ZM204.94 60.48C205.687 59.4133 206.593 58.6133 207.66 58.08C208.833 57.5467 210.007 57.28 211.18 57.28C212.887 57.28 214.38 57.76 215.66 58.72C217.58 60.32 218.54 62.1867 218.54 64.32C218.54 66.0267 217.953 67.6267 216.78 69.12C215.073 71.36 212.887 72.48 210.22 72.48C208.513 72.48 207.18 72.0533 206.22 71.2C204.3 69.7067 203.34 67.7867 203.34 65.44C203.34 63.52 203.873 61.8667 204.94 60.48ZM167.762 211.52C160.296 211.52 154.162 210.507 149.362 208.48C144.562 206.453 142.162 202.56 142.162 196.8C142.162 192.64 144.509 189.173 149.202 186.4C153.789 183.733 160.296 181.44 168.722 179.52C191.762 174.187 206.429 170.56 212.722 168.64C213.362 168.533 215.176 167.947 218.162 166.88L219.122 165.28L223.602 157.6L224.242 156.64C222.856 158.667 220.776 160.427 218.002 161.92C215.229 163.307 212.082 164 208.562 164C201.629 164 198.162 160.587 198.162 153.76C198.162 149.493 199.442 144.533 202.002 138.88C210.002 121.387 218.589 107.893 227.762 98.4C236.936 88.8 246.909 84 257.682 84C260.669 84 263.176 84.6933 265.203 86.08C267.336 87.4667 268.402 89.3333 268.402 91.68C268.402 93.7067 267.816 95.4133 266.643 96.8C265.576 98.1867 264.082 99.2 262.162 99.84L251.282 118.72L247.122 125.92L242.642 133.76L225.042 164.16C231.016 161.493 236.669 158.24 242.002 154.4C243.922 153.013 246.269 150.987 249.042 148.32C251.816 145.547 256.296 140.8 262.482 134.08L277.522 117.6L280.722 120.8L266.962 136C257.896 146.133 250.322 153.6 244.242 158.4C242.216 160 239.069 161.92 234.802 164.16C230.536 166.4 226.109 168.427 221.522 170.24C217.682 176.96 214.376 182.4 211.602 186.56C208.936 190.72 206.109 194.187 203.122 196.96C197.682 202.08 191.922 205.76 185.842 208C179.762 210.347 173.736 211.52 167.762 211.52ZM146.962 196.8C146.962 200.853 148.936 203.52 152.882 204.8C156.829 206.08 161.629 206.72 167.282 206.72C171.976 206.72 177.629 205.493 184.242 203.04C190.749 200.587 196.082 197.227 200.242 192.96C204.082 189.013 208.882 182.293 214.642 172.8C209.842 174.4 202.696 176.373 193.202 178.72C183.602 181.173 175.869 182.987 170.002 184.16C162.536 185.76 156.829 187.52 152.882 189.44C148.936 191.467 146.962 193.92 146.962 196.8ZM207.122 138.88C204.136 144.64 202.642 149.387 202.642 153.12C202.642 157.493 204.936 159.68 209.522 159.68C213.682 159.68 218.269 157.28 223.282 152.48C228.402 147.573 233.362 140.907 238.162 132.48L246.802 117.28L256.402 100.64C244.989 100.747 235.336 104.32 227.442 111.36C219.549 118.4 212.776 127.573 207.122 138.88ZM279.345 165.92C276.358 165.92 274.012 164.907 272.305 162.88C270.705 160.853 269.905 158.133 269.905 154.72C269.905 149.387 271.772 143.467 275.505 136.96L295.505 102.4L279.025 120.64L275.825 117.6L306.065 84L310.065 86.08L279.825 138.56C276.412 144.64 274.705 149.92 274.705 154.4C274.705 156.533 275.078 158.187 275.825 159.36C276.678 160.533 277.852 161.12 279.345 161.12C282.438 161.12 285.692 159.573 289.105 156.48C292.625 153.387 298.332 147.413 306.225 138.56L314.385 129.44L324.945 117.6L328.145 120.8L318.865 131.2L312.625 138.24C305.585 146.133 300.412 151.84 297.105 155.36C293.798 158.773 290.705 161.387 287.825 163.2C285.052 165.013 282.225 165.92 279.345 165.92ZM314.545 60.48C315.292 59.4133 316.198 58.6133 317.265 58.08C318.438 57.5467 319.612 57.28 320.785 57.28C322.492 57.28 323.985 57.76 325.265 58.72C327.185 60.32 328.145 62.1867 328.145 64.32C328.145 66.0267 327.558 67.6267 326.385 69.12C324.678 71.36 322.492 72.48 319.825 72.48C318.118 72.48 316.785 72.0533 315.825 71.2C313.905 69.7067 312.945 67.7867 312.945 65.44C312.945 63.52 313.478 61.8667 314.545 60.48ZM330.167 168.8C326.541 168.8 323.714 167.733 321.687 165.6C319.767 163.573 318.807 160.693 318.807 156.96C318.807 151.733 320.781 145.653 324.727 138.72L348.887 96.8L348.407 96.16L326.327 120.64L323.127 117.6L346.007 92.96C343.447 89.6533 341.687 87.2533 340.727 85.76C339.767 84.16 339.287 82.6133 339.287 81.12C339.287 77.8133 340.727 75.5733 343.607 74.4C346.487 73.2267 350.647 72.64 356.087 72.64H362.807L388.727 27.2C390.754 23.5733 392.887 20.9067 395.127 19.2C397.474 17.4933 400.087 16.64 402.968 16.64C405.314 16.64 407.074 17.3867 408.247 18.88C409.527 20.2667 410.114 22.24 410.007 24.8C409.901 27.5733 407.554 31.68 402.968 37.12C398.381 42.4533 391.767 49.4933 383.127 58.24C376.621 64.96 372.087 69.76 369.527 72.64H404.247V77.12H365.687L364.407 78.72L354.007 96.8C359.661 105.76 362.487 115.04 362.487 124.64C362.487 131.467 360.834 138.347 357.527 145.28C354.221 152.107 350.061 157.76 345.047 162.24C340.034 166.613 335.074 168.8 330.167 168.8ZM328.887 140.32C325.047 147.04 323.127 152.48 323.127 156.64C323.127 159.2 323.767 161.12 325.047 162.4C326.434 163.68 328.194 164.32 330.327 164.32C334.381 164.32 338.541 162.347 342.807 158.4C347.181 154.347 350.807 149.227 353.687 143.04C356.567 136.853 358.007 130.72 358.007 124.64C358.007 116.107 355.874 108.267 351.607 101.12L328.887 140.32ZM344.087 81.12C344.087 81.9733 344.461 82.9867 345.207 84.16C345.954 85.3333 347.234 87.1467 349.047 89.6L355.767 81.44L359.607 77.12H356.087C351.714 77.12 348.621 77.44 346.807 78.08C344.994 78.72 344.087 79.7333 344.087 81.12ZM375.165 166.08C371.432 166.08 368.712 165.013 367.005 162.88C365.298 160.747 364.445 157.92 364.445 154.4C364.445 149.493 365.725 144.32 368.285 138.88C376.285 121.387 384.872 107.893 394.045 98.4C403.218 88.8 413.192 84 423.965 84C426.845 84 429.245 84.6933 431.165 86.08C433.085 87.36 434.045 89.2267 434.045 91.68C434.045 95.7333 432.178 98.4533 428.445 99.84L408.765 133.76C407.058 136.427 405.245 140.32 403.325 145.44C401.405 150.453 400.445 154.453 400.445 157.44C400.445 160.213 401.352 161.6 403.165 161.6C404.445 161.6 405.778 161.173 407.165 160.32C408.658 159.36 410.472 157.707 412.605 155.36L446.525 117.6L449.725 120.8L417.085 157.28C414.098 160.587 411.432 162.88 409.085 164.16C406.738 165.44 404.445 166.08 402.205 166.08C400.072 166.08 398.418 165.387 397.245 164C396.178 162.507 395.645 160.533 395.645 158.08C395.645 155.733 396.018 153.387 396.765 151.04C390.045 161.067 382.845 166.08 375.165 166.08ZM373.245 138.88C370.578 144.64 369.245 149.653 369.245 153.92C369.245 159.04 371.432 161.6 375.805 161.6C379.752 161.6 384.232 158.987 389.245 153.76C394.258 148.427 399.272 141.333 404.285 132.48L422.525 100.64C411.005 100.747 401.192 104.373 393.085 111.52C385.085 118.667 378.472 127.787 373.245 138.88ZM449.244 165.92C446.364 165.92 444.07 164.853 442.364 162.72C440.657 160.48 439.804 157.653 439.804 154.24C439.804 150.613 440.817 146.987 442.844 143.36C448.817 133.013 454.417 123.36 459.644 114.4L470.524 95.52L447.964 120.8L444.764 117.6L452.124 109.44L480.764 77.76L517.884 13.44C520.444 8.95999 522.844 5.75999 525.084 3.83999C527.324 1.91999 529.67 0.959991 532.124 0.959991C534.79 0.959991 537.137 1.81333 539.164 3.52C541.297 5.22666 542.364 7.30666 542.364 9.75999C542.364 12.2133 541.724 14.5067 540.444 16.64C539.27 18.7733 537.457 21.2267 535.004 24L485.564 78.72L478.364 91.36C461.51 121.013 451.27 138.827 447.644 144.8C445.617 148.213 444.604 151.413 444.604 154.4C444.604 156.427 445.084 158.08 446.044 159.36C447.11 160.533 448.55 161.12 450.364 161.12C453.244 161.12 456.39 159.947 459.804 157.6C463.324 155.253 466.79 152.213 470.204 148.48L497.884 117.6L501.084 120.8L474.364 150.72C469.35 156.373 464.924 160.32 461.084 162.56C457.35 164.8 453.404 165.92 449.244 165.92ZM561.925 166.4C555.098 166.4 549.712 163.093 545.765 156.48C541.925 149.867 540.005 140.907 540.005 129.6C540.005 109.867 545.178 90.0267 555.525 70.08C565.978 50.0267 579.792 33.5467 596.965 20.64C614.138 7.73332 632.325 1.22666 651.525 1.12C661.338 1.01333 670.352 3.30666 678.565 8C686.885 12.5867 693.498 19.36 698.405 28.32C703.312 37.28 705.765 47.9467 705.765 60.32C705.765 72.8 703.632 85.28 699.365 97.76C695.205 110.24 689.392 121.6 681.925 131.84C693.018 128.32 701.338 123.573 706.885 117.6L710.085 120.8C703.578 128.053 692.592 133.707 677.125 137.76C669.658 146.72 661.338 153.76 652.165 158.88C643.098 163.893 633.765 166.4 624.165 166.4C619.685 166.4 615.792 165.493 612.485 163.68C609.285 161.76 607.685 159.307 607.685 156.32C607.685 153.013 609.338 150.347 612.645 148.32C615.952 146.293 620.112 144.693 625.125 143.52C630.245 142.24 637.338 140.853 646.405 139.36C658.352 137.44 667.632 135.627 674.245 133.92C682.458 123.893 689.018 112.373 693.925 99.36C698.832 86.3467 701.285 73.4933 701.285 60.8C701.285 49.6 698.992 39.7867 694.405 31.36C689.925 22.9333 683.845 16.48 676.165 12C668.592 7.51999 660.378 5.27999 651.525 5.27999C633.392 5.27999 616.112 11.5733 599.685 24.16C583.258 36.7467 570.032 52.64 560.005 71.84C549.978 91.04 544.965 109.867 544.965 128.32C544.965 138.347 546.565 146.453 549.765 152.64C552.965 158.827 557.125 161.92 562.245 161.92C566.512 161.92 570.512 160.533 574.245 157.76C578.085 154.88 581.712 151.04 585.125 146.24C588.645 141.44 593.018 134.773 598.245 126.24C600.485 122.613 604.645 115.52 610.725 104.96C613.072 100.587 615.258 96.6933 617.285 93.28L646.245 43.04C649.445 37.4933 651.845 33.4933 653.445 31.04C655.152 28.48 656.538 26.72 657.605 25.76C658.672 24.8 660.112 23.84 661.925 22.88C663.205 22.24 664.538 21.92 665.925 21.92C668.058 21.92 669.872 22.6667 671.365 24.16C672.858 25.6533 673.605 27.4667 673.605 29.6C673.605 31.3067 673.018 33.0667 671.845 34.88C670.672 36.5867 668.858 38.1867 666.405 39.68C660.325 43.3067 654.832 47.68 649.925 52.8C645.018 57.92 640.752 63.2533 637.125 68.8C633.605 74.24 629.338 81.3333 624.325 90.08L621.445 95.04C617.285 102.293 613.712 108.587 610.725 113.92L601.925 129.28C596.165 139.2 591.152 146.827 586.885 152.16C582.618 157.387 578.565 161.067 574.725 163.2C570.885 165.333 566.618 166.4 561.925 166.4ZM612.165 156.32C612.165 158.24 613.338 159.68 615.685 160.64C618.032 161.493 621.018 161.92 624.645 161.92C632.432 161.92 640.112 160 647.685 156.16C655.258 152.213 662.405 146.773 669.125 139.84C665.285 140.693 657.392 142.133 645.445 144.16C633.712 146.08 625.232 147.84 620.005 149.44C614.778 151.04 612.165 153.333 612.165 156.32ZM707.185 165.76C703.132 165.76 699.932 164.267 697.585 161.28C695.345 158.293 694.225 154.773 694.225 150.72C694.225 144.747 695.238 138.773 697.265 132.8C699.292 126.72 702.065 121.44 705.585 116.96C722.972 94.9867 736.305 84 745.585 84C748.358 84 750.758 84.9067 752.785 86.72C754.812 88.4267 755.825 90.8267 755.825 93.92C755.825 98.4 753.692 102.293 749.425 105.6C745.158 108.907 740.145 111.573 734.385 113.6C728.732 115.627 721.692 117.76 713.265 120L708.625 121.28C705.425 125.867 703.025 130.72 701.425 135.84C699.825 140.853 699.025 145.333 699.025 149.28C699.025 152.587 699.772 155.36 701.265 157.6C702.758 159.84 704.678 160.96 707.025 160.96C711.825 160.96 716.678 159.307 721.585 156C726.492 152.587 731.932 147.52 737.905 140.8L758.865 117.6L762.065 120.8L741.425 143.68C734.385 151.467 728.252 157.12 723.025 160.64C717.905 164.053 712.625 165.76 707.185 165.76ZM713.905 114.72C724.785 111.52 733.638 108.32 740.465 105.12C747.398 101.813 750.865 98.1867 750.865 94.24C750.865 92.4267 750.385 91.1467 749.425 90.4C748.465 89.6533 747.292 89.28 745.905 89.28C743.452 89.28 739.612 91.2 734.385 95.04C729.158 98.88 722.332 105.44 713.905 114.72ZM766.539 166.08C756.939 166.08 752.139 163.947 752.139 159.68C752.139 157.76 752.725 156.267 753.899 155.2C755.179 154.133 756.672 153.173 758.379 152.32C760.192 151.36 761.419 150.72 762.059 150.4L767.019 148C767.552 147.68 768.299 147.307 769.259 146.88C770.325 146.347 771.125 145.92 771.659 145.6C777.525 141.547 780.459 136.96 780.459 131.84C780.459 129.92 779.925 126.4 778.859 121.28C777.365 115.093 776.672 109.973 776.779 105.92C771.979 108.907 766.485 113.867 760.299 120.8L757.419 124L754.219 120.8L766.059 107.68L775.339 97.28C778.965 93.3333 782.325 90.4 785.419 88.48C788.512 86.4533 791.285 85.2267 793.739 84.8C796.299 84.2667 799.232 84 802.539 84C805.312 84 807.659 84.7467 809.579 86.24C811.499 87.6267 812.459 89.44 812.459 91.68C812.459 94.1333 811.499 96.1067 809.579 97.6C807.765 99.0933 805.632 99.84 803.179 99.84C799.125 99.84 795.872 99.9467 793.419 100.16C790.965 100.267 788.512 100.693 786.059 101.44C784.459 101.867 782.859 102.507 781.259 103.36L781.099 104.64C780.885 109.013 781.579 114.24 783.179 120.32C783.285 121.067 783.605 122.667 784.139 125.12C784.672 127.467 784.939 129.707 784.939 131.84C784.939 134.933 783.925 138.08 781.899 141.28C779.979 144.48 777.365 147.147 774.059 149.28C772.672 150.24 769.685 151.787 765.099 153.92C764.459 154.24 763.339 154.773 761.739 155.52C760.245 156.16 759.072 156.8 758.219 157.44C757.472 158.08 757.099 158.827 757.099 159.68C757.099 160.64 757.952 161.28 759.659 161.6C761.472 161.813 763.819 161.92 766.699 161.92C771.499 161.92 776.192 160.64 780.779 158.08C785.365 155.52 789.739 152.267 793.899 148.32C798.165 144.373 803.179 139.147 808.939 132.64L822.379 117.6L825.579 120.64L811.819 135.84C805.845 142.453 800.565 147.84 795.979 152C791.499 156.16 786.805 159.573 781.899 162.24C776.992 164.8 771.872 166.08 766.539 166.08ZM824.171 165.92C821.185 165.92 818.838 164.907 817.131 162.88C815.531 160.853 814.731 158.133 814.731 154.72C814.731 149.387 816.598 143.467 820.331 136.96L840.331 102.4L823.851 120.64L820.651 117.6L850.891 84L854.891 86.08L824.651 138.56C821.238 144.64 819.531 149.92 819.531 154.4C819.531 156.533 819.905 158.187 820.651 159.36C821.505 160.533 822.678 161.12 824.171 161.12C827.265 161.12 830.518 159.573 833.931 156.48C837.451 153.387 843.158 147.413 851.051 138.56L859.211 129.44L869.771 117.6L872.971 120.8L863.691 131.2L857.451 138.24C850.411 146.133 845.238 151.84 841.931 155.36C838.625 158.773 835.531 161.387 832.651 163.2C829.878 165.013 827.051 165.92 824.171 165.92ZM859.371 60.48C860.118 59.4133 861.025 58.6133 862.091 58.08C863.265 57.5467 864.438 57.28 865.611 57.28C867.318 57.28 868.811 57.76 870.091 58.72C872.011 60.32 872.971 62.1867 872.971 64.32C872.971 66.0267 872.385 67.6267 871.211 69.12C869.505 71.36 867.318 72.48 864.651 72.48C862.945 72.48 861.611 72.0533 860.651 71.2C858.731 69.7067 857.771 67.7867 857.771 65.44C857.771 63.52 858.305 61.8667 859.371 60.48ZM822.194 211.52C814.727 211.52 808.594 210.507 803.794 208.48C798.994 206.453 796.594 202.56 796.594 196.8C796.594 192.64 798.94 189.173 803.634 186.4C808.22 183.733 814.727 181.44 823.154 179.52C846.194 174.187 860.86 170.56 867.154 168.64C867.794 168.533 869.607 167.947 872.594 166.88L873.554 165.28L878.034 157.6L878.674 156.64C877.287 158.667 875.207 160.427 872.434 161.92C869.66 163.307 866.514 164 862.994 164C856.06 164 852.594 160.587 852.594 153.76C852.594 149.493 853.874 144.533 856.434 138.88C864.434 121.387 873.02 107.893 882.194 98.4C891.367 88.8 901.34 84 912.114 84C915.1 84 917.607 84.6933 919.634 86.08C921.767 87.4667 922.834 89.3333 922.834 91.68C922.834 93.7067 922.247 95.4133 921.074 96.8C920.007 98.1867 918.514 99.2 916.594 99.84L905.714 118.72L901.554 125.92L897.074 133.76L879.474 164.16C885.447 161.493 891.1 158.24 896.434 154.4C898.354 153.013 900.7 150.987 903.474 148.32C906.247 145.547 910.727 140.8 916.914 134.08L931.954 117.6L935.154 120.8L921.394 136C912.327 146.133 904.754 153.6 898.674 158.4C896.647 160 893.5 161.92 889.234 164.16C884.967 166.4 880.54 168.427 875.954 170.24C872.114 176.96 868.807 182.4 866.034 186.56C863.367 190.72 860.54 194.187 857.554 196.96C852.114 202.08 846.354 205.76 840.274 208C834.194 210.347 828.167 211.52 822.194 211.52ZM801.394 196.8C801.394 200.853 803.367 203.52 807.314 204.8C811.26 206.08 816.06 206.72 821.714 206.72C826.407 206.72 832.06 205.493 838.674 203.04C845.18 200.587 850.514 197.227 854.674 192.96C858.514 189.013 863.314 182.293 869.074 172.8C864.274 174.4 857.127 176.373 847.634 178.72C838.034 181.173 830.3 182.987 824.434 184.16C816.967 185.76 811.26 187.52 807.314 189.44C803.367 191.467 801.394 193.92 801.394 196.8ZM861.554 138.88C858.567 144.64 857.074 149.387 857.074 153.12C857.074 157.493 859.367 159.68 863.954 159.68C868.114 159.68 872.7 157.28 877.714 152.48C882.834 147.573 887.794 140.907 892.594 132.48L901.234 117.28L910.834 100.64C899.42 100.747 889.767 104.32 881.874 111.36C873.98 118.4 867.207 127.573 861.554 138.88ZM968.336 165.76C965.563 165.76 963.43 164.8 961.936 162.88C960.443 160.96 959.696 158.507 959.696 155.52C959.696 152.213 960.55 149.067 962.256 146.08L988.336 100.96C989.616 98.8267 990.256 96.7467 990.256 94.72C990.256 92.9067 989.67 91.4667 988.496 90.4C987.323 89.3333 985.83 88.8 984.016 88.8C981.35 88.8 978.896 89.44 976.656 90.72C974.523 92 972.39 94.3467 970.256 97.76L969.456 99.2L932.016 164L927.696 161.44L964.656 97.6C966.15 95.2533 966.896 93.1733 966.896 91.36C966.896 89.76 966.15 88.96 964.656 88.96C963.376 88.96 962.043 89.6 960.656 90.88C959.376 92.0533 956.87 94.72 953.136 98.88L933.456 120.64L930.256 117.6L948.976 96.8C949.51 96.2667 950.203 95.4667 951.056 94.4C954.256 90.6667 956.816 88 958.736 86.4C960.763 84.8 962.896 84 965.136 84C967.163 84 968.763 84.48 969.936 85.44C971.216 86.2933 971.963 87.5733 972.176 89.28C974.203 87.4667 976.176 86.1333 978.096 85.28C980.016 84.4267 982.096 84 984.336 84C987.643 84 990.31 85.0667 992.336 87.2C994.363 89.2267 995.376 91.7867 995.376 94.88C995.376 97.44 994.576 100.107 992.976 102.88L967.216 147.52C965.51 150.4 964.656 153.173 964.656 155.84C964.656 157.333 965.03 158.56 965.776 159.52C966.63 160.48 967.803 160.96 969.296 160.96C972.07 160.96 974.95 159.787 977.936 157.44C981.03 155.093 984.336 152 987.856 148.16L1015.38 117.6L1018.58 120.8L991.696 150.72C986.79 156.267 982.63 160.16 979.216 162.4C975.803 164.64 972.176 165.76 968.336 165.76ZM1015.57 165.76C1011.52 165.76 1008.32 164.267 1005.97 161.28C1003.73 158.293 1002.61 154.773 1002.61 150.72C1002.61 144.747 1003.63 138.773 1005.65 132.8C1007.68 126.72 1010.45 121.44 1013.97 116.96C1031.36 94.9867 1044.69 84 1053.97 84C1056.75 84 1059.15 84.9067 1061.17 86.72C1063.2 88.4267 1064.21 90.8267 1064.21 93.92C1064.21 98.4 1062.08 102.293 1057.81 105.6C1053.55 108.907 1048.53 111.573 1042.77 113.6C1037.12 115.627 1030.08 117.76 1021.65 120L1017.01 121.28C1013.81 125.867 1011.41 130.72 1009.81 135.84C1008.21 140.853 1007.41 145.333 1007.41 149.28C1007.41 152.587 1008.16 155.36 1009.65 157.6C1011.15 159.84 1013.07 160.96 1015.41 160.96C1020.21 160.96 1025.07 159.307 1029.97 156C1034.88 152.587 1040.32 147.52 1046.29 140.8L1067.25 117.6L1070.45 120.8L1049.81 143.68C1042.77 151.467 1036.64 157.12 1031.41 160.64C1026.29 164.053 1021.01 165.76 1015.57 165.76ZM1022.29 114.72C1033.17 111.52 1042.03 108.32 1048.85 105.12C1055.79 101.813 1059.25 98.1867 1059.25 94.24C1059.25 92.4267 1058.77 91.1467 1057.81 90.4C1056.85 89.6533 1055.68 89.28 1054.29 89.28C1051.84 89.28 1048 91.2 1042.77 95.04C1037.55 98.88 1030.72 105.44 1022.29 114.72ZM1078.93 165.92C1074.45 165.92 1070.71 164.373 1067.73 161.28C1064.85 158.187 1063.41 154.293 1063.41 149.6C1063.41 143.413 1065.49 137.653 1069.65 132.32C1073.91 126.88 1077.91 122.827 1081.65 120.16C1085.38 117.493 1090.77 113.92 1097.81 109.44C1102.61 106.453 1106.07 103.787 1108.21 101.44C1110.45 99.0933 1111.57 96.5333 1111.57 93.76C1111.57 92.3733 1110.98 91.1467 1109.81 90.08C1108.74 89.0133 1107.46 88.48 1105.97 88.48C1103.19 88.48 1100.53 89.0667 1097.97 90.24C1095.51 91.4133 1092.74 93.8133 1089.65 97.44L1068.69 120.8L1065.49 117.6L1087.25 93.44C1090.98 89.3867 1094.29 86.7733 1097.17 85.6C1100.05 84.4267 1102.98 83.84 1105.97 83.84C1108.95 83.84 1111.46 84.8533 1113.49 86.88C1115.51 88.9067 1116.53 91.2 1116.53 93.76C1116.53 97.7067 1115.25 101.067 1112.69 103.84C1110.13 106.613 1106.02 109.707 1100.37 113.12C1094.39 116.853 1089.27 120.32 1085.01 123.52C1080.85 126.613 1077.01 130.4 1073.49 134.88C1070.07 139.36 1068.37 144.107 1068.37 149.12C1068.37 153.28 1069.38 156.373 1071.41 158.4C1073.54 160.427 1076.1 161.44 1079.09 161.44C1081.86 161.44 1084.69 160.213 1087.57 157.76C1090.45 155.307 1094.18 151.573 1098.77 146.56L1111.89 132L1124.85 117.6L1128.05 120.8L1117.65 132.48C1116.26 134.08 1112.47 138.347 1106.29 145.28L1103.41 148.32C1099.46 152.693 1096.37 156 1094.13 158.24C1091.99 160.373 1089.59 162.187 1086.93 163.68C1084.37 165.173 1081.7 165.92 1078.93 165.92Z" fill="black"/>
</svg>
